<?xml version="1.0" standalone="no"?>
<!DOCTYPE svg PUBLIC "-//W3C//DTD SVG 20010904//EN"
 "http://www.w3.org/TR/2001/REC-SVG-20010904/DTD/svg10.dtd">
<svg version="1.0" xmlns="http://www.w3.org/2000/svg"
 width="128.000000pt" height="128.000000pt" viewBox="0 0 128.000000 128.000000"
 preserveAspectRatio="xMidYMid meet">
<metadata>
Created by potrace 1.11, written by Peter Selinger 2001-2013
</metadata>
<g transform="translate(0.000000,128.000000) scale(0.100000,-0.100000)"
fill="#000000" stroke="none">
<path d="M615 1153 c-9 -38 -18 -75 -21 -83 -2 -8 -13 -49 -24 -90 -11 -41
-23 -83 -25 -93 -10 -45 -18 -58 -29 -54 -32 12 -356 97 -371 97 -10 0 45 -61
129 -145 l147 -145 -133 -133 c-73 -73 -139 -140 -145 -148 -10 -12 29 -5 150
28 260 69 235 67 247 24 5 -20 17 -63 26 -96 9 -33 27 -104 41 -157 14 -54 29
-98 33 -98 5 0 13 19 18 43 21 90 92 347 95 347 1 0 90 -24 197 -54 107 -29
197 -51 199 -50 1 2 -63 68 -143 148 l-146 146 146 146 c80 80 144 147 142
149 -3 2 -102 -23 -308 -80 -46 -13 -86 -23 -87 -21 -3 3 -63 211 -67 231 -10
50 -41 155 -47 155 -3 0 -14 -30 -24 -67z"/>
</g>
</svg>
